# xmcd
#
# Track frame offsets:
#        150
#        20915
#        44682
#        66216
#        94862
#        121576
#        139049
#        152399
#        170412
#        192155
#
# Disc length: 2935 seconds
#
# Revision: 0
# Processed by: cddbd v1.5.1PL0 Copyright (c) Steve Scherf et al.
# Submitted via: ExactAudioCopy v0.95a3
#
DISCID=820b750a
DTITLE=CROW - (HAJIMARI)
DYEAR=2005
DGENRE=New Age
TTITLE0=Perfect Order
TTITLE1=Nobara
TTITLE2=Last Straw
TTITLE3=Cardiac Sound
TTITLE4=Hallucination
TTITLE5=Blackish Fractal Garden
TTITLE6=Warning Coloration
TTITLE7=Lawbreaker
TTITLE8=Light Waves
TTITLE9=Half Awake And Half Asleep
EXTD=
EXTT0=
EXTT1=
EXTT2=
EXTT3=
EXTT4=
EXTT5=
EXTT6=
EXTT7=
EXTT8=
EXTT9=
PLAYORDER=
